<mxfile host="app.diagrams.net" modified="2024-04-23T15:04:47.762Z" agent="Mozilla/5.0 (Windows NT 10.0; Win64; x64) AppleWebKit/537.36 (KHTML, like Gecko) Chrome/123.0.0.0 Safari/537.36" etag="oF5SNFAZErsQ44xtFI00" version="24.2.8" type="github">
  <diagram name="Trang-1" id="QfPc8f2yyIYW2TFsUel_">
    <mxGraphModel dx="802" dy="928" grid="0" gridSize="10" guides="1" tooltips="1" connect="1" arrows="1" fold="1" page="1" pageScale="1" pageWidth="1654" pageHeight="2336" math="0" shadow="0">
      <root>
        <mxCell id="0" />
        <mxCell id="1" parent="0" />
        <mxCell id="klZ8Iv5JOiSuoDanMf5N-1" value="Actor" style="shape=umlActor;verticalLabelPosition=bottom;verticalAlign=top;html=1;outlineConnect=0;overflow=hidden;noLabel=1;" vertex="1" parent="1">
          <mxGeometry x="75" y="64" width="30" height="60" as="geometry" />
        </mxCell>
        <mxCell id="klZ8Iv5JOiSuoDanMf5N-3" value="&lt;u&gt;GUI System&lt;/u&gt;" style="rounded=0;whiteSpace=wrap;html=1;" vertex="1" parent="1">
          <mxGeometry x="166.5" y="77" width="100" height="46" as="geometry" />
        </mxCell>
        <mxCell id="klZ8Iv5JOiSuoDanMf5N-4" value="" style="rounded=0;whiteSpace=wrap;html=1;" vertex="1" parent="1">
          <mxGeometry x="209" y="208" width="15" height="347" as="geometry" />
        </mxCell>
        <mxCell id="klZ8Iv5JOiSuoDanMf5N-5" value=":&lt;u&gt;Products&lt;/u&gt;" style="rounded=0;whiteSpace=wrap;html=1;" vertex="1" parent="1">
          <mxGeometry x="324" y="77" width="100" height="46" as="geometry" />
        </mxCell>
        <mxCell id="klZ8Iv5JOiSuoDanMf5N-6" value=":&lt;u&gt;Prices&lt;/u&gt;" style="rounded=0;whiteSpace=wrap;html=1;" vertex="1" parent="1">
          <mxGeometry x="479" y="78" width="100" height="46" as="geometry" />
        </mxCell>
        <mxCell id="klZ8Iv5JOiSuoDanMf5N-8" value="" style="endArrow=none;dashed=1;html=1;rounded=0;" edge="1" parent="1">
          <mxGeometry width="50" height="50" relative="1" as="geometry">
            <mxPoint x="88" y="539" as="sourcePoint" />
            <mxPoint x="88" y="156" as="targetPoint" />
          </mxGeometry>
        </mxCell>
        <mxCell id="klZ8Iv5JOiSuoDanMf5N-9" value="" style="endArrow=classic;html=1;rounded=0;" edge="1" parent="1">
          <mxGeometry width="50" height="50" relative="1" as="geometry">
            <mxPoint x="88" y="240" as="sourcePoint" />
            <mxPoint x="208" y="240" as="targetPoint" />
          </mxGeometry>
        </mxCell>
        <mxCell id="klZ8Iv5JOiSuoDanMf5N-10" value="" style="endArrow=none;dashed=1;html=1;rounded=0;entryX=0.5;entryY=1;entryDx=0;entryDy=0;exitX=0.5;exitY=0;exitDx=0;exitDy=0;" edge="1" parent="1" source="klZ8Iv5JOiSuoDanMf5N-4" target="klZ8Iv5JOiSuoDanMf5N-3">
          <mxGeometry width="50" height="50" relative="1" as="geometry">
            <mxPoint x="232" y="337" as="sourcePoint" />
            <mxPoint x="282" y="287" as="targetPoint" />
          </mxGeometry>
        </mxCell>
        <mxCell id="klZ8Iv5JOiSuoDanMf5N-13" value="" style="endArrow=classic;html=1;rounded=0;exitX=1.027;exitY=0.107;exitDx=0;exitDy=0;exitPerimeter=0;entryX=0;entryY=0.5;entryDx=0;entryDy=0;" edge="1" parent="1" source="klZ8Iv5JOiSuoDanMf5N-4" target="klZ8Iv5JOiSuoDanMf5N-14">
          <mxGeometry width="50" height="50" relative="1" as="geometry">
            <mxPoint x="257" y="236" as="sourcePoint" />
            <mxPoint x="338" y="239" as="targetPoint" />
          </mxGeometry>
        </mxCell>
        <mxCell id="klZ8Iv5JOiSuoDanMf5N-16" value="SetProductInFo()" style="edgeLabel;html=1;align=center;verticalAlign=middle;resizable=0;points=[];" vertex="1" connectable="0" parent="klZ8Iv5JOiSuoDanMf5N-13">
          <mxGeometry x="-0.0289" relative="1" as="geometry">
            <mxPoint as="offset" />
          </mxGeometry>
        </mxCell>
        <mxCell id="klZ8Iv5JOiSuoDanMf5N-14" value="" style="rounded=0;whiteSpace=wrap;html=1;" vertex="1" parent="1">
          <mxGeometry x="366.5" y="218" width="15" height="53" as="geometry" />
        </mxCell>
        <mxCell id="klZ8Iv5JOiSuoDanMf5N-18" value="" style="rounded=0;whiteSpace=wrap;html=1;" vertex="1" parent="1">
          <mxGeometry x="521.5" y="355" width="15" height="53" as="geometry" />
        </mxCell>
        <mxCell id="klZ8Iv5JOiSuoDanMf5N-21" value="" style="endArrow=none;dashed=1;html=1;rounded=0;exitX=0.5;exitY=0;exitDx=0;exitDy=0;entryX=0.5;entryY=1;entryDx=0;entryDy=0;" edge="1" parent="1" source="klZ8Iv5JOiSuoDanMf5N-14" target="klZ8Iv5JOiSuoDanMf5N-5">
          <mxGeometry width="50" height="50" relative="1" as="geometry">
            <mxPoint x="464" y="337" as="sourcePoint" />
            <mxPoint x="514" y="287" as="targetPoint" />
          </mxGeometry>
        </mxCell>
        <mxCell id="klZ8Iv5JOiSuoDanMf5N-22" value="" style="endArrow=none;dashed=1;html=1;rounded=0;exitX=0.5;exitY=0;exitDx=0;exitDy=0;entryX=0.5;entryY=1;entryDx=0;entryDy=0;" edge="1" parent="1" source="klZ8Iv5JOiSuoDanMf5N-18" target="klZ8Iv5JOiSuoDanMf5N-6">
          <mxGeometry width="50" height="50" relative="1" as="geometry">
            <mxPoint x="384" y="222" as="sourcePoint" />
            <mxPoint x="384" y="133" as="targetPoint" />
          </mxGeometry>
        </mxCell>
        <mxCell id="klZ8Iv5JOiSuoDanMf5N-24" value=":&lt;u&gt;Prices&lt;/u&gt;" style="rounded=0;whiteSpace=wrap;html=1;" vertex="1" parent="1">
          <mxGeometry x="622" y="78" width="100" height="46" as="geometry" />
        </mxCell>
        <mxCell id="klZ8Iv5JOiSuoDanMf5N-25" value="" style="endArrow=none;dashed=1;html=1;rounded=0;entryX=0.5;entryY=1;entryDx=0;entryDy=0;exitX=0.5;exitY=0;exitDx=0;exitDy=0;" edge="1" parent="1" source="klZ8Iv5JOiSuoDanMf5N-27" target="klZ8Iv5JOiSuoDanMf5N-24">
          <mxGeometry width="50" height="50" relative="1" as="geometry">
            <mxPoint x="672" y="197" as="sourcePoint" />
            <mxPoint x="514" y="287" as="targetPoint" />
          </mxGeometry>
        </mxCell>
        <mxCell id="klZ8Iv5JOiSuoDanMf5N-27" value="" style="rounded=0;whiteSpace=wrap;html=1;" vertex="1" parent="1">
          <mxGeometry x="664.5" y="442" width="15" height="53" as="geometry" />
        </mxCell>
        <mxCell id="klZ8Iv5JOiSuoDanMf5N-30" style="rounded=0;orthogonalLoop=1;jettySize=auto;html=1;exitX=1;exitY=0.5;exitDx=0;exitDy=0;entryX=0;entryY=0.5;entryDx=0;entryDy=0;" edge="1" parent="1" source="klZ8Iv5JOiSuoDanMf5N-4" target="klZ8Iv5JOiSuoDanMf5N-18">
          <mxGeometry relative="1" as="geometry">
            <mxPoint x="508" y="349" as="targetPoint" />
            <mxPoint x="261" y="313" as="sourcePoint" />
          </mxGeometry>
        </mxCell>
        <mxCell id="klZ8Iv5JOiSuoDanMf5N-31" value="SetProductPrice()" style="edgeLabel;html=1;align=center;verticalAlign=middle;resizable=0;points=[];" vertex="1" connectable="0" parent="klZ8Iv5JOiSuoDanMf5N-30">
          <mxGeometry x="-0.1306" y="2" relative="1" as="geometry">
            <mxPoint as="offset" />
          </mxGeometry>
        </mxCell>
        <mxCell id="klZ8Iv5JOiSuoDanMf5N-32" style="rounded=0;orthogonalLoop=1;jettySize=auto;html=1;exitX=1;exitY=0.75;exitDx=0;exitDy=0;entryX=0;entryY=0.5;entryDx=0;entryDy=0;" edge="1" parent="1" source="klZ8Iv5JOiSuoDanMf5N-4" target="klZ8Iv5JOiSuoDanMf5N-27">
          <mxGeometry relative="1" as="geometry">
            <mxPoint x="378" y="466" as="sourcePoint" />
            <mxPoint x="590" y="468" as="targetPoint" />
          </mxGeometry>
        </mxCell>
        <mxCell id="klZ8Iv5JOiSuoDanMf5N-33" value="SetPromotions()" style="edgeLabel;html=1;align=center;verticalAlign=middle;resizable=0;points=[];" vertex="1" connectable="0" parent="klZ8Iv5JOiSuoDanMf5N-32">
          <mxGeometry x="-0.0891" y="1" relative="1" as="geometry">
            <mxPoint as="offset" />
          </mxGeometry>
        </mxCell>
        <mxCell id="klZ8Iv5JOiSuoDanMf5N-35" value="" style="html=1;verticalAlign=bottom;endArrow=open;dashed=1;endSize=8;curved=0;rounded=0;exitX=0;exitY=0.75;exitDx=0;exitDy=0;entryX=1.093;entryY=0.144;entryDx=0;entryDy=0;entryPerimeter=0;" edge="1" parent="1" source="klZ8Iv5JOiSuoDanMf5N-14" target="klZ8Iv5JOiSuoDanMf5N-4">
          <mxGeometry relative="1" as="geometry">
            <mxPoint x="353" y="268" as="sourcePoint" />
            <mxPoint x="273" y="268" as="targetPoint" />
          </mxGeometry>
        </mxCell>
        <mxCell id="klZ8Iv5JOiSuoDanMf5N-36" value="" style="html=1;verticalAlign=bottom;endArrow=open;dashed=1;endSize=8;curved=0;rounded=0;exitX=-0.08;exitY=0.827;exitDx=0;exitDy=0;entryX=1.093;entryY=0.144;entryDx=0;entryDy=0;entryPerimeter=0;exitPerimeter=0;" edge="1" parent="1" source="klZ8Iv5JOiSuoDanMf5N-4">
          <mxGeometry relative="1" as="geometry">
            <mxPoint x="229" y="494" as="sourcePoint" />
            <mxPoint x="87" y="494" as="targetPoint" />
          </mxGeometry>
        </mxCell>
        <mxCell id="klZ8Iv5JOiSuoDanMf5N-37" value="" style="html=1;verticalAlign=bottom;endArrow=open;dashed=1;endSize=8;curved=0;rounded=0;exitX=0;exitY=0.75;exitDx=0;exitDy=0;entryX=1.093;entryY=0.778;entryDx=0;entryDy=0;entryPerimeter=0;" edge="1" parent="1" source="klZ8Iv5JOiSuoDanMf5N-27" target="klZ8Iv5JOiSuoDanMf5N-4">
          <mxGeometry relative="1" as="geometry">
            <mxPoint x="371" y="485" as="sourcePoint" />
            <mxPoint x="229" y="485" as="targetPoint" />
          </mxGeometry>
        </mxCell>
        <mxCell id="klZ8Iv5JOiSuoDanMf5N-38" value="" style="html=1;verticalAlign=bottom;endArrow=open;dashed=1;endSize=8;curved=0;rounded=0;exitX=0;exitY=0.75;exitDx=0;exitDy=0;entryX=0.987;entryY=0.559;entryDx=0;entryDy=0;entryPerimeter=0;" edge="1" parent="1" target="klZ8Iv5JOiSuoDanMf5N-4">
          <mxGeometry relative="1" as="geometry">
            <mxPoint x="518" y="402" as="sourcePoint" />
            <mxPoint x="376" y="402" as="targetPoint" />
          </mxGeometry>
        </mxCell>
        <mxCell id="klZ8Iv5JOiSuoDanMf5N-40" value="Providers" style="text;html=1;align=center;verticalAlign=middle;resizable=0;points=[];autosize=1;strokeColor=none;fillColor=none;" vertex="1" parent="1">
          <mxGeometry x="57" y="122" width="69" height="26" as="geometry" />
        </mxCell>
        <mxCell id="klZ8Iv5JOiSuoDanMf5N-41" value="Actor" style="shape=umlActor;verticalLabelPosition=bottom;verticalAlign=top;html=1;outlineConnect=0;overflow=hidden;noLabel=1;" vertex="1" parent="1">
          <mxGeometry x="73.5" y="638" width="30" height="60" as="geometry" />
        </mxCell>
        <mxCell id="klZ8Iv5JOiSuoDanMf5N-42" value=":Guest" style="text;html=1;align=center;verticalAlign=middle;resizable=0;points=[];autosize=1;strokeColor=none;fillColor=none;" vertex="1" parent="1">
          <mxGeometry x="64.5" y="696" width="53" height="26" as="geometry" />
        </mxCell>
        <mxCell id="klZ8Iv5JOiSuoDanMf5N-43" value="" style="endArrow=none;dashed=1;html=1;rounded=0;" edge="1" parent="1">
          <mxGeometry width="50" height="50" relative="1" as="geometry">
            <mxPoint x="91" y="1107" as="sourcePoint" />
            <mxPoint x="91" y="724" as="targetPoint" />
          </mxGeometry>
        </mxCell>
        <mxCell id="klZ8Iv5JOiSuoDanMf5N-44" value="" style="endArrow=classic;html=1;rounded=0;" edge="1" parent="1">
          <mxGeometry width="50" height="50" relative="1" as="geometry">
            <mxPoint x="91" y="808" as="sourcePoint" />
            <mxPoint x="211" y="808" as="targetPoint" />
          </mxGeometry>
        </mxCell>
        <mxCell id="klZ8Iv5JOiSuoDanMf5N-45" value="" style="rounded=0;whiteSpace=wrap;html=1;" vertex="1" parent="1">
          <mxGeometry x="212" y="776" width="15" height="347" as="geometry" />
        </mxCell>
        <mxCell id="klZ8Iv5JOiSuoDanMf5N-46" value="" style="html=1;verticalAlign=bottom;endArrow=open;dashed=1;endSize=8;curved=0;rounded=0;exitX=-0.08;exitY=0.827;exitDx=0;exitDy=0;entryX=1.093;entryY=0.144;entryDx=0;entryDy=0;entryPerimeter=0;exitPerimeter=0;" edge="1" source="klZ8Iv5JOiSuoDanMf5N-45" parent="1">
          <mxGeometry relative="1" as="geometry">
            <mxPoint x="232" y="1062" as="sourcePoint" />
            <mxPoint x="90" y="1062" as="targetPoint" />
          </mxGeometry>
        </mxCell>
        <mxCell id="klZ8Iv5JOiSuoDanMf5N-47" value="&lt;u&gt;GUI System&lt;/u&gt;" style="rounded=0;whiteSpace=wrap;html=1;" vertex="1" parent="1">
          <mxGeometry x="166.5" y="645" width="100" height="46" as="geometry" />
        </mxCell>
        <mxCell id="klZ8Iv5JOiSuoDanMf5N-48" value="" style="endArrow=none;dashed=1;html=1;rounded=0;entryX=0.5;entryY=1;entryDx=0;entryDy=0;exitX=0.333;exitY=0;exitDx=0;exitDy=0;exitPerimeter=0;" edge="1" parent="1" source="klZ8Iv5JOiSuoDanMf5N-45" target="klZ8Iv5JOiSuoDanMf5N-47">
          <mxGeometry width="50" height="50" relative="1" as="geometry">
            <mxPoint x="219" y="772" as="sourcePoint" />
            <mxPoint x="219" y="694" as="targetPoint" />
          </mxGeometry>
        </mxCell>
        <mxCell id="klZ8Iv5JOiSuoDanMf5N-49" value=":&lt;u&gt;Products&lt;/u&gt;" style="rounded=0;whiteSpace=wrap;html=1;" vertex="1" parent="1">
          <mxGeometry x="346" y="645" width="100" height="46" as="geometry" />
        </mxCell>
        <mxCell id="klZ8Iv5JOiSuoDanMf5N-50" value="" style="endArrow=none;dashed=1;html=1;rounded=0;entryX=0.5;entryY=1;entryDx=0;entryDy=0;exitX=0.5;exitY=0;exitDx=0;exitDy=0;" edge="1" parent="1" source="klZ8Iv5JOiSuoDanMf5N-51" target="klZ8Iv5JOiSuoDanMf5N-49">
          <mxGeometry width="50" height="50" relative="1" as="geometry">
            <mxPoint x="396" y="760" as="sourcePoint" />
            <mxPoint x="395.5" y="698" as="targetPoint" />
          </mxGeometry>
        </mxCell>
        <mxCell id="klZ8Iv5JOiSuoDanMf5N-51" value="" style="rounded=0;whiteSpace=wrap;html=1;" vertex="1" parent="1">
          <mxGeometry x="388.5" y="782" width="15" height="53" as="geometry" />
        </mxCell>
        <mxCell id="klZ8Iv5JOiSuoDanMf5N-52" value="" style="endArrow=classic;html=1;rounded=0;exitX=1.027;exitY=0.107;exitDx=0;exitDy=0;exitPerimeter=0;entryX=0;entryY=0.5;entryDx=0;entryDy=0;" edge="1" parent="1" target="klZ8Iv5JOiSuoDanMf5N-51">
          <mxGeometry width="50" height="50" relative="1" as="geometry">
            <mxPoint x="227" y="809" as="sourcePoint" />
            <mxPoint x="370" y="809" as="targetPoint" />
          </mxGeometry>
        </mxCell>
        <mxCell id="klZ8Iv5JOiSuoDanMf5N-53" value="GetProductInFo()" style="edgeLabel;html=1;align=center;verticalAlign=middle;resizable=0;points=[];" vertex="1" connectable="0" parent="klZ8Iv5JOiSuoDanMf5N-52">
          <mxGeometry x="-0.0289" relative="1" as="geometry">
            <mxPoint as="offset" />
          </mxGeometry>
        </mxCell>
        <mxCell id="klZ8Iv5JOiSuoDanMf5N-55" value="" style="html=1;verticalAlign=bottom;endArrow=open;dashed=1;endSize=8;curved=0;rounded=0;exitX=-0.08;exitY=0.827;exitDx=0;exitDy=0;entryX=1;entryY=0.144;entryDx=0;entryDy=0;entryPerimeter=0;exitPerimeter=0;" edge="1" parent="1" target="klZ8Iv5JOiSuoDanMf5N-45">
          <mxGeometry relative="1" as="geometry">
            <mxPoint x="388.5" y="826" as="sourcePoint" />
            <mxPoint x="267.5" y="825" as="targetPoint" />
          </mxGeometry>
        </mxCell>
        <mxCell id="klZ8Iv5JOiSuoDanMf5N-56" value=":&lt;u&gt;ShoppingCart&lt;/u&gt;" style="rounded=0;whiteSpace=wrap;html=1;" vertex="1" parent="1">
          <mxGeometry x="505" y="645" width="100" height="46" as="geometry" />
        </mxCell>
        <mxCell id="klZ8Iv5JOiSuoDanMf5N-57" value="" style="endArrow=none;dashed=1;html=1;rounded=0;entryX=0.5;entryY=1;entryDx=0;entryDy=0;exitX=0.5;exitY=0;exitDx=0;exitDy=0;" edge="1" parent="1" source="klZ8Iv5JOiSuoDanMf5N-58" target="klZ8Iv5JOiSuoDanMf5N-56">
          <mxGeometry width="50" height="50" relative="1" as="geometry">
            <mxPoint x="555" y="871" as="sourcePoint" />
            <mxPoint x="406" y="701" as="targetPoint" />
          </mxGeometry>
        </mxCell>
        <mxCell id="klZ8Iv5JOiSuoDanMf5N-58" value="" style="rounded=0;whiteSpace=wrap;html=1;" vertex="1" parent="1">
          <mxGeometry x="547.5" y="869" width="15" height="53" as="geometry" />
        </mxCell>
        <mxCell id="klZ8Iv5JOiSuoDanMf5N-59" value="" style="endArrow=classic;html=1;rounded=0;exitX=1;exitY=0.308;exitDx=0;exitDy=0;exitPerimeter=0;entryX=0;entryY=0.25;entryDx=0;entryDy=0;" edge="1" parent="1" source="klZ8Iv5JOiSuoDanMf5N-45" target="klZ8Iv5JOiSuoDanMf5N-58">
          <mxGeometry width="50" height="50" relative="1" as="geometry">
            <mxPoint x="227" y="891" as="sourcePoint" />
            <mxPoint x="389" y="891" as="targetPoint" />
          </mxGeometry>
        </mxCell>
        <mxCell id="klZ8Iv5JOiSuoDanMf5N-60" value="AddToCart()" style="edgeLabel;html=1;align=center;verticalAlign=middle;resizable=0;points=[];" vertex="1" connectable="0" parent="klZ8Iv5JOiSuoDanMf5N-59">
          <mxGeometry x="-0.0289" relative="1" as="geometry">
            <mxPoint as="offset" />
          </mxGeometry>
        </mxCell>
        <mxCell id="klZ8Iv5JOiSuoDanMf5N-61" value="" style="html=1;verticalAlign=bottom;endArrow=open;dashed=1;endSize=8;curved=0;rounded=0;exitX=-0.08;exitY=0.827;exitDx=0;exitDy=0;entryX=1.16;entryY=0.372;entryDx=0;entryDy=0;entryPerimeter=0;exitPerimeter=0;" edge="1" parent="1" target="klZ8Iv5JOiSuoDanMf5N-45">
          <mxGeometry relative="1" as="geometry">
            <mxPoint x="547.5" y="904" as="sourcePoint" />
            <mxPoint x="386" y="904" as="targetPoint" />
          </mxGeometry>
        </mxCell>
        <mxCell id="klZ8Iv5JOiSuoDanMf5N-63" value="Actor" style="shape=umlActor;verticalLabelPosition=bottom;verticalAlign=top;html=1;outlineConnect=0;overflow=hidden;noLabel=1;" vertex="1" parent="1">
          <mxGeometry x="838" y="78" width="30" height="60" as="geometry" />
        </mxCell>
        <mxCell id="klZ8Iv5JOiSuoDanMf5N-64" value=":Guest" style="text;html=1;align=center;verticalAlign=middle;resizable=0;points=[];autosize=1;strokeColor=none;fillColor=none;" vertex="1" parent="1">
          <mxGeometry x="828" y="136" width="53" height="26" as="geometry" />
        </mxCell>
        <mxCell id="klZ8Iv5JOiSuoDanMf5N-65" value="" style="endArrow=none;dashed=1;html=1;rounded=0;" edge="1" parent="1">
          <mxGeometry width="50" height="50" relative="1" as="geometry">
            <mxPoint x="855.5" y="547" as="sourcePoint" />
            <mxPoint x="855.5" y="164" as="targetPoint" />
          </mxGeometry>
        </mxCell>
        <mxCell id="klZ8Iv5JOiSuoDanMf5N-66" value="" style="endArrow=classic;html=1;rounded=0;" edge="1" parent="1">
          <mxGeometry width="50" height="50" relative="1" as="geometry">
            <mxPoint x="855.5" y="248" as="sourcePoint" />
            <mxPoint x="975.5" y="248" as="targetPoint" />
          </mxGeometry>
        </mxCell>
        <mxCell id="klZ8Iv5JOiSuoDanMf5N-83" value="GetTheOrder()" style="edgeLabel;html=1;align=center;verticalAlign=middle;resizable=0;points=[];" vertex="1" connectable="0" parent="klZ8Iv5JOiSuoDanMf5N-66">
          <mxGeometry x="-0.2605" y="-1" relative="1" as="geometry">
            <mxPoint x="12" as="offset" />
          </mxGeometry>
        </mxCell>
        <mxCell id="klZ8Iv5JOiSuoDanMf5N-67" value="" style="rounded=0;whiteSpace=wrap;html=1;" vertex="1" parent="1">
          <mxGeometry x="976.5" y="216" width="15" height="347" as="geometry" />
        </mxCell>
        <mxCell id="klZ8Iv5JOiSuoDanMf5N-68" value="" style="html=1;verticalAlign=bottom;endArrow=open;dashed=1;endSize=8;curved=0;rounded=0;exitX=-0.08;exitY=0.827;exitDx=0;exitDy=0;entryX=1.093;entryY=0.144;entryDx=0;entryDy=0;entryPerimeter=0;exitPerimeter=0;" edge="1" source="klZ8Iv5JOiSuoDanMf5N-67" parent="1">
          <mxGeometry relative="1" as="geometry">
            <mxPoint x="996.5" y="502" as="sourcePoint" />
            <mxPoint x="854.5" y="502" as="targetPoint" />
          </mxGeometry>
        </mxCell>
        <mxCell id="klZ8Iv5JOiSuoDanMf5N-69" value="&lt;u&gt;GUI System&lt;/u&gt;" style="rounded=0;whiteSpace=wrap;html=1;" vertex="1" parent="1">
          <mxGeometry x="931" y="85" width="100" height="46" as="geometry" />
        </mxCell>
        <mxCell id="klZ8Iv5JOiSuoDanMf5N-70" value="" style="endArrow=none;dashed=1;html=1;rounded=0;entryX=0.5;entryY=1;entryDx=0;entryDy=0;exitX=0.333;exitY=0;exitDx=0;exitDy=0;exitPerimeter=0;" edge="1" source="klZ8Iv5JOiSuoDanMf5N-67" target="klZ8Iv5JOiSuoDanMf5N-69" parent="1">
          <mxGeometry width="50" height="50" relative="1" as="geometry">
            <mxPoint x="983.5" y="212" as="sourcePoint" />
            <mxPoint x="983.5" y="134" as="targetPoint" />
          </mxGeometry>
        </mxCell>
        <mxCell id="klZ8Iv5JOiSuoDanMf5N-71" value=":&lt;u&gt;Orders&lt;/u&gt;" style="rounded=0;whiteSpace=wrap;html=1;" vertex="1" parent="1">
          <mxGeometry x="1110.5" y="85" width="100" height="46" as="geometry" />
        </mxCell>
        <mxCell id="klZ8Iv5JOiSuoDanMf5N-72" value="" style="endArrow=none;dashed=1;html=1;rounded=0;entryX=0.5;entryY=1;entryDx=0;entryDy=0;exitX=0.5;exitY=0;exitDx=0;exitDy=0;" edge="1" source="klZ8Iv5JOiSuoDanMf5N-73" target="klZ8Iv5JOiSuoDanMf5N-71" parent="1">
          <mxGeometry width="50" height="50" relative="1" as="geometry">
            <mxPoint x="1160.5" y="200" as="sourcePoint" />
            <mxPoint x="1160" y="138" as="targetPoint" />
          </mxGeometry>
        </mxCell>
        <mxCell id="klZ8Iv5JOiSuoDanMf5N-73" value="" style="rounded=0;whiteSpace=wrap;html=1;" vertex="1" parent="1">
          <mxGeometry x="1153" y="222" width="15" height="53" as="geometry" />
        </mxCell>
        <mxCell id="klZ8Iv5JOiSuoDanMf5N-74" value="" style="endArrow=classic;html=1;rounded=0;exitX=1.027;exitY=0.107;exitDx=0;exitDy=0;exitPerimeter=0;entryX=0;entryY=0.5;entryDx=0;entryDy=0;" edge="1" target="klZ8Iv5JOiSuoDanMf5N-73" parent="1">
          <mxGeometry width="50" height="50" relative="1" as="geometry">
            <mxPoint x="991.5" y="249" as="sourcePoint" />
            <mxPoint x="1134.5" y="249" as="targetPoint" />
          </mxGeometry>
        </mxCell>
        <mxCell id="klZ8Iv5JOiSuoDanMf5N-75" value="GetOrdersInfo()" style="edgeLabel;html=1;align=center;verticalAlign=middle;resizable=0;points=[];" vertex="1" connectable="0" parent="klZ8Iv5JOiSuoDanMf5N-74">
          <mxGeometry x="-0.0289" relative="1" as="geometry">
            <mxPoint as="offset" />
          </mxGeometry>
        </mxCell>
        <mxCell id="klZ8Iv5JOiSuoDanMf5N-76" value="" style="html=1;verticalAlign=bottom;endArrow=open;dashed=1;endSize=8;curved=0;rounded=0;exitX=-0.08;exitY=0.827;exitDx=0;exitDy=0;entryX=1;entryY=0.144;entryDx=0;entryDy=0;entryPerimeter=0;exitPerimeter=0;" edge="1" target="klZ8Iv5JOiSuoDanMf5N-67" parent="1">
          <mxGeometry relative="1" as="geometry">
            <mxPoint x="1153" y="266" as="sourcePoint" />
            <mxPoint x="1032" y="265" as="targetPoint" />
          </mxGeometry>
        </mxCell>
        <mxCell id="klZ8Iv5JOiSuoDanMf5N-77" value=":&lt;u&gt;Prices&lt;/u&gt;" style="rounded=0;whiteSpace=wrap;html=1;" vertex="1" parent="1">
          <mxGeometry x="1269.5" y="85" width="100" height="46" as="geometry" />
        </mxCell>
        <mxCell id="klZ8Iv5JOiSuoDanMf5N-78" value="" style="endArrow=none;dashed=1;html=1;rounded=0;entryX=0.5;entryY=1;entryDx=0;entryDy=0;exitX=0.5;exitY=0;exitDx=0;exitDy=0;" edge="1" source="klZ8Iv5JOiSuoDanMf5N-79" target="klZ8Iv5JOiSuoDanMf5N-77" parent="1">
          <mxGeometry width="50" height="50" relative="1" as="geometry">
            <mxPoint x="1319.5" y="311" as="sourcePoint" />
            <mxPoint x="1170.5" y="141" as="targetPoint" />
          </mxGeometry>
        </mxCell>
        <mxCell id="klZ8Iv5JOiSuoDanMf5N-79" value="" style="rounded=0;whiteSpace=wrap;html=1;" vertex="1" parent="1">
          <mxGeometry x="1312" y="309" width="15" height="53" as="geometry" />
        </mxCell>
        <mxCell id="klZ8Iv5JOiSuoDanMf5N-80" value="" style="endArrow=classic;html=1;rounded=0;exitX=1;exitY=0.308;exitDx=0;exitDy=0;exitPerimeter=0;entryX=0;entryY=0.25;entryDx=0;entryDy=0;" edge="1" source="klZ8Iv5JOiSuoDanMf5N-67" target="klZ8Iv5JOiSuoDanMf5N-79" parent="1">
          <mxGeometry width="50" height="50" relative="1" as="geometry">
            <mxPoint x="991.5" y="331" as="sourcePoint" />
            <mxPoint x="1153.5" y="331" as="targetPoint" />
          </mxGeometry>
        </mxCell>
        <mxCell id="klZ8Iv5JOiSuoDanMf5N-81" value="GetPrices()" style="edgeLabel;html=1;align=center;verticalAlign=middle;resizable=0;points=[];" vertex="1" connectable="0" parent="klZ8Iv5JOiSuoDanMf5N-80">
          <mxGeometry x="-0.0289" relative="1" as="geometry">
            <mxPoint as="offset" />
          </mxGeometry>
        </mxCell>
        <mxCell id="klZ8Iv5JOiSuoDanMf5N-82" value="" style="html=1;verticalAlign=bottom;endArrow=open;dashed=1;endSize=8;curved=0;rounded=0;exitX=-0.08;exitY=0.827;exitDx=0;exitDy=0;entryX=1.16;entryY=0.372;entryDx=0;entryDy=0;entryPerimeter=0;exitPerimeter=0;" edge="1" target="klZ8Iv5JOiSuoDanMf5N-67" parent="1">
          <mxGeometry relative="1" as="geometry">
            <mxPoint x="1312" y="344" as="sourcePoint" />
            <mxPoint x="1150.5" y="344" as="targetPoint" />
          </mxGeometry>
        </mxCell>
        <mxCell id="klZ8Iv5JOiSuoDanMf5N-84" value="" style="endArrow=classic;html=1;rounded=0;exitX=0.999;exitY=0.719;exitDx=0;exitDy=0;exitPerimeter=0;entryX=0;entryY=0.25;entryDx=0;entryDy=0;" edge="1" target="klZ8Iv5JOiSuoDanMf5N-87" parent="1" source="klZ8Iv5JOiSuoDanMf5N-67">
          <mxGeometry width="50" height="50" relative="1" as="geometry">
            <mxPoint x="1158" y="323" as="sourcePoint" />
            <mxPoint x="1319.5" y="331" as="targetPoint" />
          </mxGeometry>
        </mxCell>
        <mxCell id="klZ8Iv5JOiSuoDanMf5N-85" value="ChooseMethod()" style="edgeLabel;html=1;align=center;verticalAlign=middle;resizable=0;points=[];" vertex="1" connectable="0" parent="klZ8Iv5JOiSuoDanMf5N-84">
          <mxGeometry x="-0.0289" relative="1" as="geometry">
            <mxPoint as="offset" />
          </mxGeometry>
        </mxCell>
        <mxCell id="klZ8Iv5JOiSuoDanMf5N-86" value="" style="html=1;verticalAlign=bottom;endArrow=open;dashed=1;endSize=8;curved=0;rounded=0;exitX=0;exitY=0.75;exitDx=0;exitDy=0;entryX=1.102;entryY=0.797;entryDx=0;entryDy=0;entryPerimeter=0;" edge="1" parent="1" source="klZ8Iv5JOiSuoDanMf5N-87" target="klZ8Iv5JOiSuoDanMf5N-67">
          <mxGeometry relative="1" as="geometry">
            <mxPoint x="1478" y="344" as="sourcePoint" />
            <mxPoint x="1160" y="345" as="targetPoint" />
          </mxGeometry>
        </mxCell>
        <mxCell id="klZ8Iv5JOiSuoDanMf5N-87" value="" style="rounded=0;whiteSpace=wrap;html=1;" vertex="1" parent="1">
          <mxGeometry x="1478" y="451" width="15" height="53" as="geometry" />
        </mxCell>
        <mxCell id="klZ8Iv5JOiSuoDanMf5N-88" value="" style="endArrow=none;dashed=1;html=1;rounded=0;entryX=0.5;entryY=1;entryDx=0;entryDy=0;exitX=0.5;exitY=0;exitDx=0;exitDy=0;" edge="1" source="klZ8Iv5JOiSuoDanMf5N-87" target="klZ8Iv5JOiSuoDanMf5N-89" parent="1">
          <mxGeometry width="50" height="50" relative="1" as="geometry">
            <mxPoint x="1485.5" y="311" as="sourcePoint" />
            <mxPoint x="1336.5" y="141" as="targetPoint" />
          </mxGeometry>
        </mxCell>
        <mxCell id="klZ8Iv5JOiSuoDanMf5N-89" value=":&lt;u&gt;PayMents&lt;/u&gt;" style="rounded=0;whiteSpace=wrap;html=1;" vertex="1" parent="1">
          <mxGeometry x="1435.5" y="85" width="100" height="46" as="geometry" />
        </mxCell>
        <mxCell id="klZ8Iv5JOiSuoDanMf5N-91" value="Actor" style="shape=umlActor;verticalLabelPosition=bottom;verticalAlign=top;html=1;outlineConnect=0;overflow=hidden;noLabel=1;" vertex="1" parent="1">
          <mxGeometry x="841" y="693" width="30" height="60" as="geometry" />
        </mxCell>
        <mxCell id="klZ8Iv5JOiSuoDanMf5N-92" value=":Guest" style="text;html=1;align=center;verticalAlign=middle;resizable=0;points=[];autosize=1;strokeColor=none;fillColor=none;" vertex="1" parent="1">
          <mxGeometry x="831" y="751" width="53" height="26" as="geometry" />
        </mxCell>
        <mxCell id="klZ8Iv5JOiSuoDanMf5N-93" value="" style="endArrow=classic;html=1;rounded=0;" edge="1" parent="1">
          <mxGeometry width="50" height="50" relative="1" as="geometry">
            <mxPoint x="861.5" y="856" as="sourcePoint" />
            <mxPoint x="981.5" y="856" as="targetPoint" />
          </mxGeometry>
        </mxCell>
        <mxCell id="klZ8Iv5JOiSuoDanMf5N-95" value="" style="html=1;verticalAlign=bottom;endArrow=open;dashed=1;endSize=8;curved=0;rounded=0;exitX=-0.08;exitY=0.827;exitDx=0;exitDy=0;entryX=1.093;entryY=0.144;entryDx=0;entryDy=0;entryPerimeter=0;exitPerimeter=0;" edge="1" parent="1">
          <mxGeometry relative="1" as="geometry">
            <mxPoint x="981" y="1111" as="sourcePoint" />
            <mxPoint x="860.5" y="1110" as="targetPoint" />
          </mxGeometry>
        </mxCell>
        <mxCell id="klZ8Iv5JOiSuoDanMf5N-96" value="&lt;u&gt;GUI System&lt;/u&gt;" style="rounded=0;whiteSpace=wrap;html=1;" vertex="1" parent="1">
          <mxGeometry x="937" y="693" width="100" height="46" as="geometry" />
        </mxCell>
        <mxCell id="klZ8Iv5JOiSuoDanMf5N-97" value="" style="endArrow=none;dashed=1;html=1;rounded=0;entryX=0.5;entryY=1;entryDx=0;entryDy=0;exitX=0.333;exitY=0;exitDx=0;exitDy=0;exitPerimeter=0;" edge="1" target="klZ8Iv5JOiSuoDanMf5N-96" parent="1">
          <mxGeometry width="50" height="50" relative="1" as="geometry">
            <mxPoint x="987" y="824" as="sourcePoint" />
            <mxPoint x="989.5" y="742" as="targetPoint" />
          </mxGeometry>
        </mxCell>
        <mxCell id="klZ8Iv5JOiSuoDanMf5N-98" value=":&lt;u&gt;ShippingOrders&lt;/u&gt;" style="rounded=0;whiteSpace=wrap;html=1;" vertex="1" parent="1">
          <mxGeometry x="1116.5" y="693" width="100" height="46" as="geometry" />
        </mxCell>
        <mxCell id="klZ8Iv5JOiSuoDanMf5N-99" value="" style="endArrow=none;dashed=1;html=1;rounded=0;entryX=0.5;entryY=1;entryDx=0;entryDy=0;exitX=0.5;exitY=0;exitDx=0;exitDy=0;" edge="1" source="klZ8Iv5JOiSuoDanMf5N-100" target="klZ8Iv5JOiSuoDanMf5N-98" parent="1">
          <mxGeometry width="50" height="50" relative="1" as="geometry">
            <mxPoint x="1166.5" y="808" as="sourcePoint" />
            <mxPoint x="1166" y="746" as="targetPoint" />
          </mxGeometry>
        </mxCell>
        <mxCell id="klZ8Iv5JOiSuoDanMf5N-100" value="" style="rounded=0;whiteSpace=wrap;html=1;" vertex="1" parent="1">
          <mxGeometry x="1159" y="830" width="15" height="53" as="geometry" />
        </mxCell>
        <mxCell id="klZ8Iv5JOiSuoDanMf5N-101" value="" style="endArrow=classic;html=1;rounded=0;exitX=1.027;exitY=0.107;exitDx=0;exitDy=0;exitPerimeter=0;entryX=0;entryY=0.5;entryDx=0;entryDy=0;" edge="1" target="klZ8Iv5JOiSuoDanMf5N-100" parent="1">
          <mxGeometry width="50" height="50" relative="1" as="geometry">
            <mxPoint x="997.5" y="857" as="sourcePoint" />
            <mxPoint x="1140.5" y="857" as="targetPoint" />
          </mxGeometry>
        </mxCell>
        <mxCell id="klZ8Iv5JOiSuoDanMf5N-102" value="GetshippingOrdersId()" style="edgeLabel;html=1;align=center;verticalAlign=middle;resizable=0;points=[];" vertex="1" connectable="0" parent="klZ8Iv5JOiSuoDanMf5N-101">
          <mxGeometry x="-0.0289" relative="1" as="geometry">
            <mxPoint as="offset" />
          </mxGeometry>
        </mxCell>
        <mxCell id="klZ8Iv5JOiSuoDanMf5N-103" value="" style="html=1;verticalAlign=bottom;endArrow=open;dashed=1;endSize=8;curved=0;rounded=0;exitX=-0.08;exitY=0.827;exitDx=0;exitDy=0;entryX=1;entryY=0.144;entryDx=0;entryDy=0;entryPerimeter=0;exitPerimeter=0;" edge="1" parent="1">
          <mxGeometry relative="1" as="geometry">
            <mxPoint x="1159" y="874" as="sourcePoint" />
            <mxPoint x="998" y="874" as="targetPoint" />
          </mxGeometry>
        </mxCell>
        <mxCell id="klZ8Iv5JOiSuoDanMf5N-104" value=":&lt;u&gt;ShippingOrders&lt;/u&gt;" style="rounded=0;whiteSpace=wrap;html=1;" vertex="1" parent="1">
          <mxGeometry x="1275.5" y="693" width="100" height="46" as="geometry" />
        </mxCell>
        <mxCell id="klZ8Iv5JOiSuoDanMf5N-105" value="" style="endArrow=none;dashed=1;html=1;rounded=0;entryX=0.5;entryY=1;entryDx=0;entryDy=0;exitX=0.5;exitY=0;exitDx=0;exitDy=0;" edge="1" source="klZ8Iv5JOiSuoDanMf5N-106" target="klZ8Iv5JOiSuoDanMf5N-104" parent="1">
          <mxGeometry width="50" height="50" relative="1" as="geometry">
            <mxPoint x="1325.5" y="919" as="sourcePoint" />
            <mxPoint x="1176.5" y="749" as="targetPoint" />
          </mxGeometry>
        </mxCell>
        <mxCell id="klZ8Iv5JOiSuoDanMf5N-106" value="" style="rounded=0;whiteSpace=wrap;html=1;" vertex="1" parent="1">
          <mxGeometry x="1318" y="917" width="15" height="53" as="geometry" />
        </mxCell>
        <mxCell id="klZ8Iv5JOiSuoDanMf5N-107" value="" style="endArrow=classic;html=1;rounded=0;exitX=1;exitY=0.308;exitDx=0;exitDy=0;exitPerimeter=0;entryX=0;entryY=0.25;entryDx=0;entryDy=0;" edge="1" target="klZ8Iv5JOiSuoDanMf5N-106" parent="1">
          <mxGeometry width="50" height="50" relative="1" as="geometry">
            <mxPoint x="998" y="931" as="sourcePoint" />
            <mxPoint x="1159.5" y="939" as="targetPoint" />
          </mxGeometry>
        </mxCell>
        <mxCell id="klZ8Iv5JOiSuoDanMf5N-108" value="GetShippingDate()" style="edgeLabel;html=1;align=center;verticalAlign=middle;resizable=0;points=[];" vertex="1" connectable="0" parent="klZ8Iv5JOiSuoDanMf5N-107">
          <mxGeometry x="-0.0289" relative="1" as="geometry">
            <mxPoint as="offset" />
          </mxGeometry>
        </mxCell>
        <mxCell id="klZ8Iv5JOiSuoDanMf5N-109" value="" style="html=1;verticalAlign=bottom;endArrow=open;dashed=1;endSize=8;curved=0;rounded=0;exitX=-0.08;exitY=0.827;exitDx=0;exitDy=0;entryX=1.16;entryY=0.372;entryDx=0;entryDy=0;entryPerimeter=0;exitPerimeter=0;" edge="1" parent="1">
          <mxGeometry relative="1" as="geometry">
            <mxPoint x="1318" y="952" as="sourcePoint" />
            <mxPoint x="1000" y="953" as="targetPoint" />
          </mxGeometry>
        </mxCell>
        <mxCell id="klZ8Iv5JOiSuoDanMf5N-110" value="" style="endArrow=classic;html=1;rounded=0;exitX=0.999;exitY=0.719;exitDx=0;exitDy=0;exitPerimeter=0;entryX=0;entryY=0.25;entryDx=0;entryDy=0;" edge="1" target="klZ8Iv5JOiSuoDanMf5N-113" parent="1">
          <mxGeometry width="50" height="50" relative="1" as="geometry">
            <mxPoint x="997" y="1073" as="sourcePoint" />
            <mxPoint x="1325.5" y="939" as="targetPoint" />
          </mxGeometry>
        </mxCell>
        <mxCell id="klZ8Iv5JOiSuoDanMf5N-111" value="GetDestinationDate()" style="edgeLabel;html=1;align=center;verticalAlign=middle;resizable=0;points=[];" vertex="1" connectable="0" parent="klZ8Iv5JOiSuoDanMf5N-110">
          <mxGeometry x="-0.0289" relative="1" as="geometry">
            <mxPoint as="offset" />
          </mxGeometry>
        </mxCell>
        <mxCell id="klZ8Iv5JOiSuoDanMf5N-112" value="" style="html=1;verticalAlign=bottom;endArrow=open;dashed=1;endSize=8;curved=0;rounded=0;exitX=0;exitY=0.75;exitDx=0;exitDy=0;entryX=1.102;entryY=0.797;entryDx=0;entryDy=0;entryPerimeter=0;" edge="1" source="klZ8Iv5JOiSuoDanMf5N-113" parent="1">
          <mxGeometry relative="1" as="geometry">
            <mxPoint x="1484" y="952" as="sourcePoint" />
            <mxPoint x="999" y="1101" as="targetPoint" />
          </mxGeometry>
        </mxCell>
        <mxCell id="klZ8Iv5JOiSuoDanMf5N-113" value="" style="rounded=0;whiteSpace=wrap;html=1;" vertex="1" parent="1">
          <mxGeometry x="1484" y="1059" width="15" height="53" as="geometry" />
        </mxCell>
        <mxCell id="klZ8Iv5JOiSuoDanMf5N-114" value="" style="endArrow=none;dashed=1;html=1;rounded=0;entryX=0.5;entryY=1;entryDx=0;entryDy=0;exitX=0.5;exitY=0;exitDx=0;exitDy=0;" edge="1" source="klZ8Iv5JOiSuoDanMf5N-113" target="klZ8Iv5JOiSuoDanMf5N-115" parent="1">
          <mxGeometry width="50" height="50" relative="1" as="geometry">
            <mxPoint x="1491.5" y="919" as="sourcePoint" />
            <mxPoint x="1342.5" y="749" as="targetPoint" />
          </mxGeometry>
        </mxCell>
        <mxCell id="klZ8Iv5JOiSuoDanMf5N-115" value=":&lt;u&gt;ShippingOrders&lt;/u&gt;" style="rounded=0;whiteSpace=wrap;html=1;" vertex="1" parent="1">
          <mxGeometry x="1441.5" y="693" width="100" height="46" as="geometry" />
        </mxCell>
        <mxCell id="klZ8Iv5JOiSuoDanMf5N-116" value="" style="rounded=0;whiteSpace=wrap;html=1;" vertex="1" parent="1">
          <mxGeometry x="983" y="827" width="15" height="347" as="geometry" />
        </mxCell>
        <mxCell id="klZ8Iv5JOiSuoDanMf5N-117" value="" style="endArrow=none;dashed=1;html=1;rounded=0;" edge="1" parent="1">
          <mxGeometry width="50" height="50" relative="1" as="geometry">
            <mxPoint x="860" y="1174" as="sourcePoint" />
            <mxPoint x="860" y="791" as="targetPoint" />
          </mxGeometry>
        </mxCell>
        <mxCell id="klZ8Iv5JOiSuoDanMf5N-121" value="Actor" style="shape=umlActor;verticalLabelPosition=bottom;verticalAlign=top;html=1;outlineConnect=0;overflow=hidden;noLabel=1;" vertex="1" parent="1">
          <mxGeometry x="878" y="1453" width="30" height="60" as="geometry" />
        </mxCell>
        <mxCell id="klZ8Iv5JOiSuoDanMf5N-122" value=":Guest" style="text;html=1;align=center;verticalAlign=middle;resizable=0;points=[];autosize=1;strokeColor=none;fillColor=none;" vertex="1" parent="1">
          <mxGeometry x="868" y="1511" width="53" height="26" as="geometry" />
        </mxCell>
        <mxCell id="klZ8Iv5JOiSuoDanMf5N-123" value="" style="endArrow=classic;html=1;rounded=0;" edge="1" parent="1">
          <mxGeometry width="50" height="50" relative="1" as="geometry">
            <mxPoint x="898.5" y="1616" as="sourcePoint" />
            <mxPoint x="1018.5" y="1616" as="targetPoint" />
          </mxGeometry>
        </mxCell>
        <mxCell id="klZ8Iv5JOiSuoDanMf5N-147" value="Login()" style="edgeLabel;html=1;align=center;verticalAlign=middle;resizable=0;points=[];" vertex="1" connectable="0" parent="klZ8Iv5JOiSuoDanMf5N-123">
          <mxGeometry x="-0.0568" y="2" relative="1" as="geometry">
            <mxPoint as="offset" />
          </mxGeometry>
        </mxCell>
        <mxCell id="klZ8Iv5JOiSuoDanMf5N-124" value="" style="html=1;verticalAlign=bottom;endArrow=open;dashed=1;endSize=8;curved=0;rounded=0;exitX=-0.08;exitY=0.827;exitDx=0;exitDy=0;entryX=1.093;entryY=0.144;entryDx=0;entryDy=0;entryPerimeter=0;exitPerimeter=0;" edge="1" parent="1">
          <mxGeometry relative="1" as="geometry">
            <mxPoint x="1018" y="1747" as="sourcePoint" />
            <mxPoint x="897.5" y="1746" as="targetPoint" />
          </mxGeometry>
        </mxCell>
        <mxCell id="klZ8Iv5JOiSuoDanMf5N-125" value="&lt;u&gt;GUI System&lt;/u&gt;" style="rounded=0;whiteSpace=wrap;html=1;" vertex="1" parent="1">
          <mxGeometry x="974" y="1453" width="100" height="46" as="geometry" />
        </mxCell>
        <mxCell id="klZ8Iv5JOiSuoDanMf5N-126" value="" style="endArrow=none;dashed=1;html=1;rounded=0;entryX=0.5;entryY=1;entryDx=0;entryDy=0;exitX=0.333;exitY=0;exitDx=0;exitDy=0;exitPerimeter=0;" edge="1" target="klZ8Iv5JOiSuoDanMf5N-125" parent="1">
          <mxGeometry width="50" height="50" relative="1" as="geometry">
            <mxPoint x="1024" y="1584" as="sourcePoint" />
            <mxPoint x="1026.5" y="1502" as="targetPoint" />
          </mxGeometry>
        </mxCell>
        <mxCell id="klZ8Iv5JOiSuoDanMf5N-127" value=":&lt;u&gt;Customers&lt;/u&gt;" style="rounded=0;whiteSpace=wrap;html=1;" vertex="1" parent="1">
          <mxGeometry x="1153.5" y="1453" width="100" height="46" as="geometry" />
        </mxCell>
        <mxCell id="klZ8Iv5JOiSuoDanMf5N-128" value="" style="endArrow=none;dashed=1;html=1;rounded=0;entryX=0.5;entryY=1;entryDx=0;entryDy=0;exitX=0.5;exitY=0;exitDx=0;exitDy=0;" edge="1" source="klZ8Iv5JOiSuoDanMf5N-129" target="klZ8Iv5JOiSuoDanMf5N-127" parent="1">
          <mxGeometry width="50" height="50" relative="1" as="geometry">
            <mxPoint x="1203.5" y="1568" as="sourcePoint" />
            <mxPoint x="1203" y="1506" as="targetPoint" />
          </mxGeometry>
        </mxCell>
        <mxCell id="klZ8Iv5JOiSuoDanMf5N-129" value="" style="rounded=0;whiteSpace=wrap;html=1;" vertex="1" parent="1">
          <mxGeometry x="1196" y="1590" width="15" height="53" as="geometry" />
        </mxCell>
        <mxCell id="klZ8Iv5JOiSuoDanMf5N-130" value="" style="endArrow=classic;html=1;rounded=0;exitX=1.027;exitY=0.107;exitDx=0;exitDy=0;exitPerimeter=0;entryX=0;entryY=0.5;entryDx=0;entryDy=0;" edge="1" target="klZ8Iv5JOiSuoDanMf5N-129" parent="1">
          <mxGeometry width="50" height="50" relative="1" as="geometry">
            <mxPoint x="1034.5" y="1617" as="sourcePoint" />
            <mxPoint x="1177.5" y="1617" as="targetPoint" />
          </mxGeometry>
        </mxCell>
        <mxCell id="klZ8Iv5JOiSuoDanMf5N-131" value="Registry()" style="edgeLabel;html=1;align=center;verticalAlign=middle;resizable=0;points=[];" vertex="1" connectable="0" parent="klZ8Iv5JOiSuoDanMf5N-130">
          <mxGeometry x="-0.0289" relative="1" as="geometry">
            <mxPoint as="offset" />
          </mxGeometry>
        </mxCell>
        <mxCell id="klZ8Iv5JOiSuoDanMf5N-132" value="" style="html=1;verticalAlign=bottom;endArrow=open;dashed=1;endSize=8;curved=0;rounded=0;exitX=-0.08;exitY=0.827;exitDx=0;exitDy=0;entryX=1;entryY=0.144;entryDx=0;entryDy=0;entryPerimeter=0;exitPerimeter=0;" edge="1" parent="1">
          <mxGeometry relative="1" as="geometry">
            <mxPoint x="1196" y="1634" as="sourcePoint" />
            <mxPoint x="1035" y="1634" as="targetPoint" />
          </mxGeometry>
        </mxCell>
        <mxCell id="klZ8Iv5JOiSuoDanMf5N-133" value=":&lt;u&gt;Customers&lt;/u&gt;" style="rounded=0;whiteSpace=wrap;html=1;" vertex="1" parent="1">
          <mxGeometry x="1312.5" y="1453" width="100" height="46" as="geometry" />
        </mxCell>
        <mxCell id="klZ8Iv5JOiSuoDanMf5N-134" value="" style="endArrow=none;dashed=1;html=1;rounded=0;entryX=0.5;entryY=1;entryDx=0;entryDy=0;exitX=0.5;exitY=0;exitDx=0;exitDy=0;" edge="1" source="klZ8Iv5JOiSuoDanMf5N-135" target="klZ8Iv5JOiSuoDanMf5N-133" parent="1">
          <mxGeometry width="50" height="50" relative="1" as="geometry">
            <mxPoint x="1362.5" y="1679" as="sourcePoint" />
            <mxPoint x="1213.5" y="1509" as="targetPoint" />
          </mxGeometry>
        </mxCell>
        <mxCell id="klZ8Iv5JOiSuoDanMf5N-135" value="" style="rounded=0;whiteSpace=wrap;html=1;" vertex="1" parent="1">
          <mxGeometry x="1355" y="1677" width="15" height="53" as="geometry" />
        </mxCell>
        <mxCell id="klZ8Iv5JOiSuoDanMf5N-136" value="" style="endArrow=classic;html=1;rounded=0;exitX=1;exitY=0.308;exitDx=0;exitDy=0;exitPerimeter=0;entryX=0;entryY=0.25;entryDx=0;entryDy=0;" edge="1" target="klZ8Iv5JOiSuoDanMf5N-135" parent="1">
          <mxGeometry width="50" height="50" relative="1" as="geometry">
            <mxPoint x="1035" y="1691" as="sourcePoint" />
            <mxPoint x="1196.5" y="1699" as="targetPoint" />
          </mxGeometry>
        </mxCell>
        <mxCell id="klZ8Iv5JOiSuoDanMf5N-137" value="ActiveCustomers()" style="edgeLabel;html=1;align=center;verticalAlign=middle;resizable=0;points=[];" vertex="1" connectable="0" parent="klZ8Iv5JOiSuoDanMf5N-136">
          <mxGeometry x="-0.0289" relative="1" as="geometry">
            <mxPoint as="offset" />
          </mxGeometry>
        </mxCell>
        <mxCell id="klZ8Iv5JOiSuoDanMf5N-138" value="" style="html=1;verticalAlign=bottom;endArrow=open;dashed=1;endSize=8;curved=0;rounded=0;exitX=-0.08;exitY=0.827;exitDx=0;exitDy=0;entryX=1.16;entryY=0.372;entryDx=0;entryDy=0;entryPerimeter=0;exitPerimeter=0;" edge="1" parent="1">
          <mxGeometry relative="1" as="geometry">
            <mxPoint x="1355" y="1712" as="sourcePoint" />
            <mxPoint x="1037" y="1713" as="targetPoint" />
          </mxGeometry>
        </mxCell>
        <mxCell id="klZ8Iv5JOiSuoDanMf5N-145" value="" style="rounded=0;whiteSpace=wrap;html=1;" vertex="1" parent="1">
          <mxGeometry x="1020" y="1587" width="15" height="216" as="geometry" />
        </mxCell>
        <mxCell id="klZ8Iv5JOiSuoDanMf5N-146" value="" style="endArrow=none;dashed=1;html=1;rounded=0;" edge="1" parent="1">
          <mxGeometry width="50" height="50" relative="1" as="geometry">
            <mxPoint x="897" y="1799" as="sourcePoint" />
            <mxPoint x="897" y="1551" as="targetPoint" />
          </mxGeometry>
        </mxCell>
      </root>
    </mxGraphModel>
  </diagram>
</mxfile>
